# xmcd
#
# Track frame offsets:
#	150
#	10905
#	23192
#	39382
#
# Disc length: 706 seconds
#
# Revision: 1
# Processed by: cddbd v1.4PL0 Copyright (c) Steve Scherf et al.
# Submitted via: dBpowerAMP V4.0
#
DISCID=2402c004
DTITLE=Monotones - Adrenaline drunk
DYEAR=2003
DGENRE=Rock and Roll
TTITLE0=Drive your Caterpillar into my Chevy
TTITLE1=I guess I never told you
TTITLE2=Son of a Peter Gunn
TTITLE3=Stab in the back
EXTD=
EXTT0=
EXTT1=
EXTT2=
EXTT3=
PLAYORDER=
